HIERARCHY
ROOT Hips
{
	OFFSET 0.000000 0.000000 0.000000
	CHANNELS 6 Xposition Yposition Zposition Zrotation Yrotation Xrotation 
	JOINT LHipJoint
	{
		OFFSET 0.000000 0.000000 0.000000
		CHANNELS 3 Zrotation Yrotation Xrotation
		JOINT LeftUpLeg
		{
			OFFSET 8.178360 -10.767780 5.035740
			CHANNELS 3 Zrotation Yrotation Xrotation
			JOINT LeftLeg
			{
				OFFSET 14.688660 -40.356780 0.000000
				CHANNELS 3 Zrotation Yrotation Xrotation
				JOINT LeftFoot
				{
					OFFSET 15.373200 -42.237540 0.000000
					CHANNELS 3 Zrotation Yrotation Xrotation
					JOINT LeftToeBase
					{
						OFFSET 0.945840 -2.598660 13.935300
						CHANNELS 3 Zrotation Yrotation Xrotation
						End Site
						{
							OFFSET 0.000000 0.000000 0.000000
						}
					}
				}
			}
		}
	}
	JOINT RHipJoint
	{
		OFFSET 0.000000 0.000000 0.000000
		CHANNELS 3 Zrotation Yrotation Xrotation
		JOINT RightUpLeg
		{
			OFFSET -7.833120 -10.767780 5.035740
			CHANNELS 3 Zrotation Yrotation Xrotation
			JOINT RightLeg
			{
				OFFSET -15.255180 -41.913300 0.000000
				CHANNELS 3 Zrotation Yrotation Xrotation
				JOINT RightFoot
				{
					OFFSET -15.409560 -42.337380 0.000000
					CHANNELS 3 Zrotation Yrotation Xrotation
					JOINT RightToeBase
					{
						OFFSET -0.988380 -2.715540 14.178900
						CHANNELS 3 Zrotation Yrotation Xrotation
						End Site
						{
							OFFSET 0.000000 0.000000 0.000000
						}
					}
				}
			}
		}
	}
	JOINT LowerBack
	{
		OFFSET 0.000000 0.000000 0.000000
		CHANNELS 3 Zrotation Yrotation Xrotation
		JOINT Spine
		{
			OFFSET 0.169620 12.213540 -1.160280
			CHANNELS 3 Zrotation Yrotation Xrotation
			JOINT Spine1
			{
				OFFSET 0.340320 12.293100 -0.256500
				CHANNELS 3 Zrotation Yrotation Xrotation
				JOINT Neck
				{
					OFFSET 0.000000 0.000000 0.000000
					CHANNELS 3 Zrotation Yrotation Xrotation
					JOINT Neck1
					{
						OFFSET -0.325020 10.477440 1.032120
						CHANNELS 3 Zrotation Yrotation Xrotation
						JOINT Head
						{
							OFFSET 0.624420 10.568160 -0.743820
							CHANNELS 3 Zrotation Yrotation Xrotation
							End Site
							{
								OFFSET 0.000000 0.000000 0.000000
							}
						}
					}
				}
				JOINT LeftShoulder
				{
					OFFSET 0.000000 0.000000 0.000000
					CHANNELS 3 Zrotation Yrotation Xrotation
					JOINT LeftArm
					{
						OFFSET 20.174460 7.205340 -1.867260
						CHANNELS 3 Zrotation Yrotation Xrotation
						JOINT LeftForeArm
						{
							OFFSET 29.898000 -0.000000 -0.000000
							CHANNELS 3 Zrotation Yrotation Xrotation
							JOINT LeftHand
							{
								OFFSET 20.901360 -0.000000 -0.000000
								CHANNELS 3 Zrotation Yrotation Xrotation
								JOINT LeftFingerBase
								{
									OFFSET 0.000000 0.000000 0.000000
									CHANNELS 3 Zrotation Yrotation Xrotation
									JOINT LeftHandIndex1
									{
										OFFSET 4.291560 -0.000000 -0.000000
										CHANNELS 3 Zrotation Yrotation Xrotation
										End Site
										{
											OFFSET 0.000000 0.000000 0.000000
										}
									}
								}
								JOINT LThumb
								{
									OFFSET 0.000000 0.000000 0.000000
									CHANNELS 3 Zrotation Yrotation Xrotation
									End Site
									{
										OFFSET 0.000000 0.000000 0.000000
									}
								}
							}
						}
					}
				}
				JOINT RightShoulder
				{
					OFFSET 0.000000 0.000000 0.000000
					CHANNELS 3 Zrotation Yrotation Xrotation
					JOINT RightArm
					{
						OFFSET -18.819600 8.244300 -2.427900
						CHANNELS 3 Zrotation Yrotation Xrotation
						JOINT RightForeArm
						{
							OFFSET -31.451400 -0.000000 -0.000000
							CHANNELS 3 Zrotation Yrotation Xrotation
							JOINT RightHand
							{
								OFFSET -20.665020 -0.000000 -0.000000
								CHANNELS 3 Zrotation Yrotation Xrotation
								JOINT RightFingerBase
								{
									OFFSET 0.000000 0.000000 0.000000
									CHANNELS 3 Zrotation Yrotation Xrotation
									JOINT RightHandIndex1
									{
										OFFSET -3.735180 -0.000000 -0.000000
										CHANNELS 3 Zrotation Yrotation Xrotation
										End Site
										{
											OFFSET 0.000000 0.000000 0.000000
										}
									}
								}
								JOINT RThumb
								{
									OFFSET 0.000000 0.000000 0.000000
									CHANNELS 3 Zrotation Yrotation Xrotation
									End Site
									{
										OFFSET 0.000000 0.000000 0.000000
									}
								}
							}
						}
					}
				}
			}
		}
	}
}
MOTION
Frames:	12
Frame Time:	0.0333333
2.177826 104.785962 -211.300146 -3.301195 -4.880514 20.214002 1.179898 -0.408591 -1.158708 -5.806592 -5.490812 -52.396185 15.423254 21.638076 76.085953 1.458273 -4.283315 7.668667 0.462100 -4.360300 -12.092500 0.925811 -2.033065 3.202057 23.084362 3.646186 -0.562344 0.990387 -4.272565 14.699194 1.889328 -7.765338 0.399193 -1.308600 7.246400 -20.447500 -0.576024 0.320260 9.916559 1.957316 0.263640 -2.462994 7.508866 0.816760 -5.942601 -11.744737 -0.850807 -3.757778 4.630556 0.239347 4.446306 4.435000 -0.111700 3.833600 -3.245540 3.039191 -3.901237 -88.547319 24.819562 25.282135 45.156349 -51.206478 -30.316024 -0.677378 -3.669266 -1.065706 19.330504 21.999184 9.048600 -7.125000 0.000000 0.000000 -10.611400 56.827500 -3.099900 1.593700 -1.053426 -1.598681 80.919102 -1.241043 51.574160 -62.596951 54.282279 -45.260468 1.817429 0.237972 -8.263773 -14.179101 17.394930 -4.872200 7.125000 0.000000 0.000000 7.869300 -12.165400 6.093400 
2.401674 104.569062 -206.665626 -3.758610 -6.732818 21.351129 1.538060 -0.515774 -1.551382 -5.897276 -4.690430 -54.894016 13.707565 21.327213 71.341773 2.042651 -6.320579 6.120497 0.607400 -4.988300 -13.875200 1.115742 -2.302892 3.521533 21.780042 4.778777 1.901912 1.277191 -3.469371 12.541522 1.299132 -6.233333 4.140422 -1.547200 7.851300 -22.263300 0.901208 3.677287 11.075071 0.846110 4.716561 -2.267304 1.938889 2.853855 -4.897567 -8.178784 -4.284906 -9.072049 4.980481 -4.438460 3.621569 3.754300 -2.174900 5.397100 -3.134462 2.810518 -3.678849 -80.851976 25.386906 34.817992 53.903293 -54.996936 -38.818661 -0.538406 -3.254987 -3.447186 18.912568 16.837868 7.024300 -7.125000 0.000000 0.000000 -8.810200 51.035900 -1.318800 1.040244 -1.012372 -1.658754 85.219319 0.852455 44.130113 -72.585536 56.887062 -54.516199 2.033888 0.069137 -8.331046 -14.402103 19.030677 -5.505100 7.125000 0.000000 0.000000 7.664500 -10.271500 6.232500 
2.920836 104.455242 -201.382320 -3.848239 -8.263152 22.121650 1.304289 -0.544848 -1.679412 -5.885843 -5.278803 -55.110613 11.461517 20.689456 65.038223 2.403620 -7.041247 4.838963 0.613400 -5.012600 -13.944600 1.013916 -2.584031 3.939626 20.095388 5.439362 4.845359 1.577879 -2.346011 9.646040 0.933092 -5.744866 10.114237 -1.637700 8.066700 -22.917000 -1.289334 2.500856 10.820043 1.479261 2.980875 -2.796340 6.210742 2.292075 -8.022044 -11.248733 -1.780223 -3.284021 5.117690 -1.038535 2.484701 4.580600 -0.587400 3.192200 -2.495853 2.992421 -4.298212 -87.349479 35.554252 27.157758 63.313933 -58.377496 -47.752081 0.066301 -3.217601 -9.926118 17.419979 18.545553 6.864400 -7.125000 0.000000 0.000000 -11.128700 52.437100 -2.057800 0.821596 -0.794296 -1.205709 81.247676 -2.760996 50.581724 -78.868487 58.540024 -60.211594 2.255208 0.052349 -10.995340 -14.529064 21.019584 -6.207700 7.125000 0.000000 0.000000 7.557100 -8.082000 6.477700 
3.408384 104.202300 -195.392670 -3.919062 -8.336055 22.744502 1.302024 -0.766688 -1.928752 -6.052620 -7.068238 -53.331876 9.469475 19.814540 59.599735 2.866723 -8.642782 6.541302 0.697900 -5.340200 -14.881400 1.386461 -2.708958 4.145715 18.899528 6.241872 5.973068 1.429544 -2.911104 10.875608 1.035281 -7.194124 15.243415 -2.382700 9.621500 -27.759600 1.723402 4.828673 10.930167 0.151169 6.184397 -2.393145 -1.311047 3.633288 -5.014289 -6.795158 -4.595193 -9.350012 5.748824 -5.053221 2.380213 3.984600 -2.298400 4.972300 -2.979404 3.105329 -3.665599 -77.410842 30.782982 35.155061 65.224531 -59.251236 -49.960314 0.353744 -3.091795 -13.448936 15.762159 17.424720 5.824100 -7.125000 0.000000 0.000000 -12.400600 50.910400 -1.829900 0.495814 -1.066439 -1.428062 86.015018 -1.448926 43.475982 -80.376010 58.720453 -61.089967 2.296338 -0.139020 -10.728623 -15.453913 22.311070 -6.994500 7.125000 0.000000 0.000000 7.060900 -6.471300 6.269100 
3.823206 103.471302 -189.245568 -3.909026 -8.207936 22.737132 1.005728 -0.757176 -1.692506 -7.312597 -7.653448 -50.796929 9.852848 19.839386 60.663464 2.666533 -7.630017 4.982486 0.745100 -5.513800 -15.380000 1.448562 -2.536288 3.952413 18.607974 7.078435 4.411363 0.453134 -5.578937 17.784178 0.787165 -8.857769 22.320429 -0.858800 5.909600 -16.522400 1.303200 4.944190 10.779917 0.193954 6.309713 -2.394415 -0.824384 3.680542 -4.959796 -6.849128 -4.756445 -9.765113 6.126251 -5.232719 2.297022 4.104600 -2.346600 5.088600 -2.962252 3.113390 -3.647417 -77.696632 30.726917 35.374168 66.243833 -59.511198 -50.692257 0.100294 -3.248851 -10.396805 18.105322 18.411165 7.115100 -7.125000 0.000000 0.000000 -10.410700 52.466300 -1.930100 0.580582 -1.088972 -1.516063 84.728493 -3.805614 43.064348 -78.479921 58.390357 -59.425180 2.330074 -0.173069 -11.486566 -15.175038 23.189805 -7.152500 7.125000 0.000000 0.000000 7.290200 -5.548000 6.606200 
4.175430 102.350772 -183.100356 -3.323133 -7.113407 21.812072 0.588832 -0.676144 -1.219353 -9.562069 -8.216934 -46.369277 10.501718 19.774601 62.317939 2.386133 -5.647628 -0.631159 1.172500 -6.873200 -19.340100 1.164737 -2.163906 3.394829 19.120302 7.712498 1.456165 -2.028561 -9.642448 29.518100 0.214064 -10.292157 28.632687 -0.106200 2.101500 -5.786300 0.260712 4.192199 12.017305 0.442566 5.273972 -2.502025 0.777999 3.120184 -6.137299 -7.560547 -4.551128 -9.299465 6.681774 -4.807757 2.150926 4.455500 -2.129600 5.017700 -3.027414 2.968917 -3.612249 -79.186145 28.910902 35.084471 65.317060 -58.945159 -49.602964 -0.023415 -3.295238 -10.776676 19.400601 18.287919 7.672500 -7.125000 0.000000 0.000000 -8.925100 52.619100 -1.684300 0.744232 -0.963021 -1.663981 83.510705 -7.360926 42.224823 -75.016851 57.656085 -56.576069 2.156459 -0.222694 -11.488378 -12.488413 22.666325 -5.821100 7.125000 0.000000 0.000000 9.041900 -6.396800 8.082000 
4.198194 101.120208 -177.056328 -1.127551 -6.906504 21.094199 0.252498 -0.643242 -0.819624 -12.934398 -9.111487 -40.558157 10.002152 19.047292 60.786858 2.750916 -5.539016 -5.986348 1.667700 -8.136500 -23.129500 0.466671 -1.610780 2.392841 18.222308 9.567532 -4.317934 -6.172357 -14.128290 46.049356 -0.335409 -7.255327 27.492283 -0.003100 0.359700 -0.988300 -2.104413 3.392696 11.710702 0.172060 3.924341 -1.985379 1.165446 2.375186 -3.793647 -7.108092 -4.512835 -10.976886 7.402589 -4.748077 1.092712 4.676000 -1.926600 4.708300 -3.306479 3.012952 -3.099614 -78.223330 22.062118 35.745514 66.835606 -59.150304 -50.754570 0.102981 -3.410909 -12.580786 20.392143 20.434809 8.877400 -7.125000 0.000000 0.000000 -8.781300 55.142000 -2.199200 0.947623 -1.115058 -1.907060 85.248302 -7.761899 39.930384 -63.897785 54.669187 -45.857472 2.193973 -0.505306 -8.925765 -14.788128 25.814614 -7.678600 7.125000 0.000000 0.000000 7.845700 -2.760500 7.530700 
4.069824 100.010430 -171.205164 1.098623 -6.128993 21.266184 0.029523 -0.539088 -0.353615 -15.997032 -10.466262 -35.968271 9.437064 18.357902 59.120040 2.703335 -4.314191 -9.643768 2.322800 -9.508400 -27.399100 -0.381719 -1.100679 1.556939 16.625611 12.364948 -13.330257 -11.335756 -17.675574 64.017925 -1.095526 -1.120070 23.361427 -0.190600 2.811800 -7.755300 -4.620304 2.240926 12.386245 0.060531 2.105643 -2.065390 2.270766 1.422885 -4.292431 -7.198162 -4.203921 -10.976530 7.832706 -4.247827 -0.051538 4.856200 -1.614500 4.140200 -3.567041 2.843707 -2.772879 -76.986586 15.586436 36.922544 69.217251 -59.529911 -52.768433 -0.045765 -3.288547 -17.517748 22.627073 17.069796 8.653300 -7.125000 0.000000 0.000000 -4.857800 51.876100 -0.824100 1.238023 -1.029753 -2.187410 86.115376 -11.102427 35.527581 -53.214072 51.068260 -35.235891 2.481955 -0.705755 -7.930123 -23.083380 28.672963 -13.079500 7.125000 0.000000 0.000000 3.126200 1.799400 3.227600 
3.984456 99.401472 -165.249666 1.372373 -5.999399 21.779691 -0.218323 -0.385412 0.016528 -17.585830 -10.155347 -31.237566 8.503706 17.491237 56.287710 2.693935 -3.496275 -11.673249 1.918000 -8.693200 -24.840200 -1.084282 -0.675951 0.985047 14.776142 15.991087 -24.662735 -16.154375 -19.754290 78.915698 -1.831318 3.568511 22.895464 -0.887200 6.004200 -16.796700 -4.911939 1.542696 13.063743 -0.004359 1.209264 -1.927397 2.458471 0.855827 -3.675461 -7.245848 -4.329473 -12.887467 8.477295 -4.241452 -0.909399 5.124300 -1.479000 4.202200 -3.672818 2.709969 -2.430897 -75.687123 6.582713 37.653337 74.960860 -60.783214 -57.833399 -0.070722 -2.957932 -20.265287 21.847794 13.709543 6.877200 -7.125000 0.000000 0.000000 -4.653500 47.781500 -0.320000 1.361144 -1.011240 -2.390363 86.366246 -15.053816 30.319667 -47.740070 48.978920 -29.871101 2.917662 -0.963834 -7.554460 -31.984631 31.011254 -19.938800 7.125000 0.000000 0.000000 -1.691200 6.790800 -1.880000 
3.942720 99.563358 -158.699748 1.489878 -4.715338 22.020989 -0.766626 -0.076930 0.498891 -18.174683 -10.656935 -24.866333 6.811100 16.086782 51.104455 2.318109 -2.184637 -11.418146 1.777900 -8.387300 -23.896700 -1.606040 -0.456836 0.670872 12.359227 16.823244 -36.620257 -19.494182 -20.748853 88.398787 -1.610708 3.809898 19.360310 -1.122000 6.728600 -18.913700 -4.438329 0.572697 14.332771 0.252824 0.080474 -1.881100 3.287957 0.196909 -3.778898 -7.284518 -3.920016 -13.799282 8.279315 -3.566997 -2.138203 4.971500 -1.129700 3.748200 -3.216754 2.609558 -2.034754 -76.149489 -0.814221 35.968139 91.689223 -63.635247 -70.660772 0.292033 -2.674119 -22.175303 19.762771 18.183376 7.582700 -7.125000 0.000000 0.000000 -8.218600 51.891100 -1.402400 0.976780 -1.078705 -2.532516 85.263394 -22.980778 27.180493 -54.686424 51.934904 -36.402209 3.180299 -0.716325 -12.084531 -31.393410 33.021449 -20.630000 7.125000 0.000000 0.000000 -1.019900 8.703300 -1.162700 
3.748590 100.239978 -151.320822 1.556586 -2.964093 23.045687 -1.463360 0.328519 1.109925 -18.018177 -11.086731 -18.481648 4.702713 14.206652 44.326162 1.692171 -0.997253 -7.715993 1.819000 -8.478400 -24.176700 -1.936488 -0.392647 0.413178 10.201669 15.546431 -47.996829 -20.692157 -21.343553 91.611086 -1.345257 3.704145 14.218839 -0.262200 3.294400 -9.099600 -3.814666 -1.020194 14.176978 0.719720 -1.761240 -1.921996 4.780533 -0.811742 -3.336078 -7.020115 -2.780057 -14.768810 7.844920 -2.053503 -3.095146 4.680800 -0.403000 3.264600 -2.520291 2.656218 -1.769150 -78.147066 -5.546357 33.937827 115.953730 -61.550036 -86.893441 -0.179298 -1.998586 -27.225722 18.490205 13.871773 5.447200 -7.125000 0.000000 0.000000 -7.644500 46.295900 -0.245900 0.547071 -1.355071 -2.509272 82.237846 -30.811166 27.082064 -66.548251 56.137833 -47.864908 3.403741 -0.702532 -8.392691 -31.818727 33.352262 -21.142400 7.125000 0.000000 0.000000 -1.406800 8.943300 -1.608800 
3.393840 102.073164 -142.840968 1.411201 -2.407083 24.373959 -2.201154 0.788584 1.954157 -17.264562 -10.575779 -12.717239 2.422933 11.809472 36.360602 1.295685 -0.753280 1.067592 2.423300 -9.697100 -28.001400 -2.012462 -0.371958 0.137965 8.895055 15.078977 -56.584073 -19.378108 -21.800169 87.554957 -0.997127 2.260661 11.075957 -0.555500 4.774500 -13.266400 -3.206454 -2.353651 13.595006 1.055523 -3.344229 -2.166027 5.734931 -1.652662 -3.414355 -6.668279 -1.391673 -15.853333 7.654499 -0.271818 -3.054221 4.586200 0.459700 3.338300 -2.051443 2.631104 -1.754119 -78.291170 -7.538019 34.423212 133.495363 -54.864376 -98.746549 -0.528814 -1.628867 -31.246043 19.338951 11.608567 4.730300 -7.125000 0.000000 0.000000 -6.065400 43.427300 0.236300 0.217503 -1.557121 -2.384573 78.961343 -37.376273 27.603974 -78.988943 59.854520 -59.405762 3.482489 -0.638574 -7.917438 -30.688619 32.942191 -20.172300 7.125000 0.000000 0.000000 -0.959000 8.100900 -1.084700 
